<?xml version="1.0" encoding="utf-8"?>
<!-- Generator: Adobe Illustrator 19.0.0, SVG Export Plug-In . SVG Version: 6.00 Build 0)  -->
<!DOCTYPE svg PUBLIC "-//W3C//DTD SVG 1.1//EN" "http://www.w3.org/Graphics/SVG/1.1/DTD/svg11.dtd">
<svg version="1.1" id="Layer_3" xmlns="http://www.w3.org/2000/svg" xmlns:xlink="http://www.w3.org/1999/xlink" x="0px" y="0px"
	 viewBox="-372 250.3 96 96" style="enable-background:new -372 250.3 96 96;" xml:space="preserve">
<g>
	<path d="M-307.5,280.7h-3.5c-0.6,0-1.2,0.5-1.2,1.2v3.5c0,0.6,0.5,1.2,1.2,1.2h3.5c0.6,0,1.2-0.5,1.2-1.2v-3.5
		C-306.3,281.2-306.9,280.7-307.5,280.7z"/>
	<path d="M-324,250.3c-26.5,0-48,21.5-48,48c0,26.5,21.5,48,48,48c26.5,0,48-21.5,48-48C-276,271.8-297.5,250.3-324,250.3z
		 M-303,312.7c0,3.6-2.9,6.6-6.6,6.6h-28.9c-3.6,0-6.6-2.9-6.6-6.6v-16.9h8.5c-0.2,0.8-0.2,1.6-0.2,2.4c0,7,5.7,12.7,12.7,12.7
		c7,0,12.7-5.7,12.7-12.7c0-0.8-0.1-1.7-0.2-2.4h8.6V312.7z M-331.8,298.3c0-4.3,3.5-7.8,7.8-7.8c4.3,0,7.8,3.5,7.8,7.8
		c0,4.3-3.5,7.8-7.8,7.8C-328.3,306.1-331.8,302.6-331.8,298.3z M-303,290.9h-10.6c-2.3-3.3-6.1-5.4-10.4-5.4
		c-4.3,0-8.1,2.1-10.4,5.4H-345v-7.1c0-3.6,2.9-6.6,6.6-6.6h28.9c3.6,0,6.6,2.9,6.6,6.6V290.9z"/>
</g>
</svg>
