<?xml version="1.0" encoding="utf-8"?>
<!-- Generator: Adobe Illustrator 19.0.0, SVG Export Plug-In . SVG Version: 6.00 Build 0)  -->
<!DOCTYPE svg PUBLIC "-//W3C//DTD SVG 1.1//EN" "http://www.w3.org/Graphics/SVG/1.1/DTD/svg11.dtd">
<svg version="1.1" id="Layer_1" xmlns="http://www.w3.org/2000/svg" xmlns:xlink="http://www.w3.org/1999/xlink" x="0px" y="0px"
	 viewBox="0 0 50 50" enable-background="new 0 0 50 50" xml:space="preserve">
<g>
	<path fill="#FFFFFF" d="M25,0C11.2,0,0,11.2,0,25s11.2,25,25,25c13.8,0,25-11.2,25-25S38.8,0,25,0z M25,48C12.3,48,2,37.7,2,25
		C2,12.3,12.3,2,25,2c12.7,0,23,10.3,23,23C48,37.7,37.7,48,25,48z"/>
	<polygon fill="#FFFFFF" points="26,10 24,10 24,24 10.1,24 10.1,26 24,26 24,39.9 26,39.9 26,26 40,26 40,24 26,24 	"/>
</g>
</svg>
